<svg xmlns="http://www.w3.org/2000/svg" xmlns:xlink="http://www.w3.org/1999/xlink" width="1080" height="1350" viewBox="0 0 1080 1350"><rect x="0" y="0" width="1080" height="1350" rx="0" fill="#09251F"/><circle cx="1040" cy="0" r="330" fill="#123D31"/><text x="80" y="84" font-family="Arial, Nimbus Sans, sans-serif" font-size="30" font-weight="bold" fill="#67E8A5">VERIQTA</text><text x="80" y="147" font-family="Arial, Nimbus Sans, sans-serif" font-size="21" font-weight="bold" fill="#A8C7BE">VERIQTA KUBERNETES</text><text x="80" y="228" font-family="Arial, Nimbus Sans, sans-serif" font-size="60" font-weight="bold" fill="#F1FAF5">PRODUCTION INVESTIGATION</text><text x="80" y="291" font-family="Arial, Nimbus Sans, sans-serif" font-size="25" font-weight="normal" fill="#A8C7BE">Use evidence to distinguish the symptom from its cause.</text><path d="M80 1254H1000" stroke="#31584B"/><text x="80" y="1300" font-family="Arial, Nimbus Sans, sans-serif" font-size="23" font-weight="bold" fill="#67E8A5">KUBERNETES-WORLD</text><text x="723" y="1300" font-family="Arial, Nimbus Sans, sans-serif" font-size="20" font-weight="normal" fill="#A8C7BE">LEARN. BUILD. OPERATE.</text><rect x="80" y="490" width="920" height="126" rx="18" fill="#143D30"/><text x="106" y="537" font-family="Arial, Nimbus Sans, sans-serif" font-size="27" font-weight="bold" fill="#67E8A5">01</text><text x="106" y="575" font-family="Arial, Nimbus Sans, sans-serif" font-size="24" font-weight="normal" fill="#F1FAF5">Events and workload state</text><path d="M124 616L124 668" stroke="#67E8A5" stroke-width="4"/><rect x="80" y="668" width="920" height="126" rx="18" fill="#143D30"/><text x="106" y="715" font-family="Arial, Nimbus Sans, sans-serif" font-size="27" font-weight="bold" fill="#67E8A5">02</text><text x="106" y="753" font-family="Arial, Nimbus Sans, sans-serif" font-size="24" font-weight="normal" fill="#F1FAF5">Container logs and telemetry</text><path d="M124 794L124 846" stroke="#67E8A5" stroke-width="4"/><rect x="80" y="846" width="920" height="126" rx="18" fill="#143D30"/><text x="106" y="893" font-family="Arial, Nimbus Sans, sans-serif" font-size="27" font-weight="bold" fill="#67E8A5">03</text><text x="106" y="931" font-family="Arial, Nimbus Sans, sans-serif" font-size="24" font-weight="normal" fill="#F1FAF5">Node and dependency evidence</text><path d="M124 972L124 1024" stroke="#67E8A5" stroke-width="4"/><rect x="80" y="1024" width="920" height="126" rx="18" fill="#143D30"/><text x="106" y="1071" font-family="Arial, Nimbus Sans, sans-serif" font-size="27" font-weight="bold" fill="#67E8A5">04</text><text x="106" y="1109" font-family="Arial, Nimbus Sans, sans-serif" font-size="24" font-weight="normal" fill="#F1FAF5">Recovery and verification</text></svg>